
<!--<svg version="1.1" xmlns="http://www.w3.org/2000/svg" xmlns:xlink="http://www.w3.org/1999/xlink" x="0px" y="0px"
	 viewBox="0 0 28 28" style="enable-background:new 0 0 28 28;" xml:space="preserve"> -->

<svg style="position: absolute; width: 0; height: 0; overflow: hidden;" version="1.1" xmlns="http://www.w3.org/2000/svg" xmlns:xlink="http://www.w3.org/1999/xlink">
<defs>
<symbol id="icon-comment" viewBox="0 0 28 28">
	<title>comment</title>
	<path class="path1" d="M10,12.2c0-1.1-0.9-2-2-2s-2,0.9-2,2s0.9,2,2,2S10,13.4,10,12.2z M16,12.2c0-1.1-0.9-2-2-2
		s-2,0.9-2,2s0.9,2,2,2S16,13.4,16,12.2z M22,12.2c0-1.1-0.9-2-2-2s-2,0.9-2,2s0.9,2,2,2S22,13.4,22,12.2z M28,12.2
		c0,5.5-6.3,10-14,10c-1.1,0-2.2-0.1-3.3-0.3c-1.8,1.8-4.1,3-6.8,3.6c-0.4,0.1-0.9,0.2-1.3,0.2c-0.2,0-0.5-0.1-0.5-0.4l0,0
		C2,25.1,2.1,25,2.3,24.8c1-0.9,2.2-1.7,2.6-5C1.9,18,0,15.3,0,12.2c0-5.5,6.3-10,14-10S28,6.7,28,12.2L28,12.2z"/>
</symbol>
<symbol id="icon-comment-2" viewBox="0 0 28 28">
	<title>comment-2</title>
	<path class="path1" d="M28,12c0,5.5-6.3,10-14,10c-0.8,0-1.5,0-2.3-0.1c-2,1.8-4.5,3.1-7.2,3.8
		C4,25.8,3.4,25.9,2.8,26c-0.3,0-0.7-0.2-0.8-0.6v0c-0.1-0.4,0.2-0.6,0.4-0.9c1-1.1,2.1-2,2.8-4.7C2.1,18,0,15.2,0,12
		C0,6.5,6.3,2,14,2S28,6.5,28,12L28,12z"/>
</symbol>
<symbol id="icon-tag" viewBox="0 0 28 28">
	<title>tag</title>
	<path class="path1" d="M9.2,8.3c0-1.1-0.9-2-2-2s-2,0.9-2,2s0.9,2,2,2S9.2,9.4,9.2,8.3z M25.8,17.3
		c0,0.5-0.2,1-0.6,1.4l-7.7,7.7c-0.4,0.4-0.9,0.6-1.4,0.6c-0.5,0-1-0.2-1.4-0.6L3.6,15.2c-0.8-0.8-1.4-2.3-1.4-3.4V5.3
		c0-1.1,0.9-2,2-2h6.5c1.1,0,2.6,0.6,3.4,1.4l11.2,11.2C25.6,16.3,25.8,16.8,25.8,17.3z"/>
</symbol>
<symbol id="icon-envelope" viewBox="0 0 28 28">
	<title>envelope</title>
	<path class="path1" d="M28,10.1v12.4c0,1.4-1.1,2.5-2.5,2.5h-23C1.1,25,0,23.9,0,22.5V10.1c0.5,0.5,1,1,1.6,1.4
		c2.6,1.8,5.2,3.5,7.8,5.4c1.3,1,2.9,2.2,4.6,2.2h0c1.7,0,3.3-1.2,4.6-2.2c2.5-1.8,5.2-3.6,7.8-5.4C27,11.1,27.5,10.6,28,10.1
		L28,10.1z M28,5.5c0,1.8-1.3,3.3-2.7,4.3c-2.4,1.7-4.9,3.4-7.3,5.1c-1,0.7-2.7,2.1-4,2.1h0c-1.3,0-3-1.4-4-2.1
		c-2.4-1.7-4.9-3.4-7.3-5.1C1.6,9,0,7.3,0,5.8C0,4.3,0.8,3,2.5,3h23C26.9,3,28,4.1,28,5.5L28,5.5z"/>
</symbol>
<symbol id="icon-quote-right" viewBox="0 0 28 28">
	<title>quote-right</title>
	<path class="path1" d="M13,6v11c0,4.4-3.6,8-8,8H4c-0.5,0-1-0.5-1-1v-2c0-0.5,0.5-1,1-1h1c2.2,0,4-1.8,4-4v-0.5C9,15.7,8.3,15,7.5,15
		H4c-1.7,0-3-1.3-3-3V6c0-1.7,1.3-3,3-3h6C11.7,3,13,4.3,13,6z M27,6v11c0,4.4-3.6,8-8,8h-1c-0.5,0-1-0.5-1-1v-2c0-0.5,0.5-1,1-1h1
		c2.2,0,4-1.8,4-4v-0.5c0-0.8-0.7-1.5-1.5-1.5H18c-1.7,0-3-1.3-3-3V6c0-1.7,1.3-3,3-3h6C25.7,3,27,4.3,27,6z"/>
</symbol>
<symbol id="icon-quote-left" viewBox="0 0 28 28">
	<title>quote-left</title>
	<path class="path1" d="M13,16v6c0,1.7-1.3,3-3,3H4c-1.7,0-3-1.3-3-3V11c0-4.4,3.6-8,8-8h1c0.5,0,1,0.5,1,1v2c0,0.5-0.5,1-1,1H9
		c-2.2,0-4,1.8-4,4v0.5C5,12.3,5.7,13,6.5,13H10C11.7,13,13,14.3,13,16z M27,16v6c0,1.7-1.3,3-3,3h-6c-1.7,0-3-1.3-3-3V11
		c0-4.4,3.6-8,8-8h1c0.5,0,1,0.5,1,1v2c0,0.5-0.5,1-1,1h-1c-2.2,0-4,1.8-4,4v0.5c0,0.8,0.7,1.5,1.5,1.5H24C25.7,13,27,14.3,27,16z"
		/>
</symbol>
<symbol id="icon-angle-right" viewBox="0 0 28 28">
	<title>angle-right</title>
	<path class="path1" d="M22.1,14c0,0.2-0.1,0.4-0.3,0.6l-13,11.8c-0.2,0.2-0.4,0.3-0.6,0.3c-0.2,0-0.5-0.1-0.6-0.3
		l-1.4-1.3c-0.2-0.2-0.3-0.4-0.3-0.6c0-0.2,0.1-0.4,0.3-0.6L17.1,14L6.2,4.1C6,3.9,5.9,3.7,5.9,3.5c0-0.2,0.1-0.4,0.3-0.6l1.4-1.3
		C7.7,1.5,8,1.4,8.2,1.4c0.2,0,0.5,0.1,0.6,0.3l13,11.8C22,13.6,22.1,13.8,22.1,14z"/>
</symbol>
<symbol id="icon-angle-left" viewBox="0 0 28 28">
	<title>angle-left</title>
	<path class="path1" d="M22.1,3.5c0,0.2-0.1,0.4-0.3,0.6L10.9,14l10.9,9.9c0.2,0.2,0.3,0.4,0.3,0.6s-0.1,0.4-0.3,0.6
		l-1.4,1.3c-0.2,0.2-0.4,0.3-0.6,0.3c-0.2,0-0.5-0.1-0.6-0.3l-13-11.8C6,14.4,5.9,14.2,5.9,14s0.1-0.4,0.3-0.6l13-11.8
		c0.2-0.2,0.4-0.3,0.6-0.3c0.2,0,0.5,0.1,0.6,0.3l1.4,1.3C22,3.1,22.1,3.3,22.1,3.5z"/>
</symbol>
<symbol id="icon-chevron-right" viewBox="0 0 28 28">
	<title>chevron-right</title>
	<path class="path1" d="M21.8,14.7L10.2,26.3c-0.4,0.4-1,0.4-1.4,0l-2.6-2.6c-0.4-0.4-0.4-1,0-1.4l8.3-8.3L6.2,5.7
		c-0.4-0.4-0.4-1,0-1.4l2.6-2.6c0.4-0.4,1-0.4,1.4,0l11.6,11.6C22.2,13.7,22.2,14.3,21.8,14.7z"/>
</symbol>
<symbol id="icon-chevron-left" viewBox="0 0 28 28">
	<title>chevron-left</title>
	<path class="path1" d="M21.8,5.7L13.5,14l8.3,8.3c0.4,0.4,0.4,1,0,1.4l-2.6,2.6c-0.4,0.4-1,0.4-1.4,0L6.2,14.7
		c-0.4-0.4-0.4-1,0-1.4L17.8,1.7c0.4-0.4,1-0.4,1.4,0l2.6,2.6C22.2,4.7,22.2,5.3,21.8,5.7z"/>
</symbol>
<symbol id="icon-link" viewBox="0 0 28 28">
	<title>link</title>
	<path class="path1" d="M23.8,20c0-0.4-0.2-0.8-0.4-1.1l-3.2-3.3c-0.3-0.3-0.7-0.4-1.1-0.4c-0.5,0-0.8,0.2-1.1,0.5
		c0.5,0.5,1.1,1,1.1,1.8c0,0.8-0.7,1.5-1.5,1.5c-0.8,0-1.2-0.6-1.7-1.1c-0.3,0.3-0.5,0.7-0.5,1.1c0,0.4,0.2,0.8,0.4,1.1l3.2,3.2
		c0.3,0.3,0.7,0.4,1.1,0.4s0.8-0.1,1.1-0.4l2.3-2.3C23.6,20.8,23.8,20.4,23.8,20z M12.8,9c0-0.4-0.2-0.8-0.4-1.1L9.1,4.7
		C8.8,4.4,8.4,4.2,8,4.2C7.7,4.2,7.3,4.4,7,4.7L4.7,7C4.4,7.2,4.3,7.6,4.3,8c0,0.4,0.2,0.8,0.4,1.1l3.2,3.2c0.3,0.3,0.7,0.4,1.1,0.4
		c0.5,0,0.8-0.2,1.1-0.5c-0.5-0.5-1.1-1-1.1-1.8C9,9.7,9.7,9,10.5,9c0.8,0,1.2,0.6,1.8,1.1C12.6,9.8,12.8,9.5,12.8,9z M26.8,20
		c0,1.2-0.5,2.3-1.3,3.2l-2.3,2.3c-0.8,0.8-2,1.3-3.2,1.3c-1.2,0-2.3-0.5-3.2-1.3l-3.2-3.2c-0.8-0.8-1.3-2-1.3-3.2
		c0-1.2,0.5-2.4,1.4-3.3l-1.4-1.4c-0.9,0.9-2,1.4-3.2,1.4c-1.2,0-2.3-0.5-3.2-1.3l-3.2-3.2c-0.9-0.9-1.3-2-1.3-3.2
		c0-1.2,0.5-2.3,1.3-3.2l2.3-2.3c0.8-0.8,2-1.3,3.2-1.3c1.2,0,2.3,0.5,3.2,1.3l3.2,3.2c0.8,0.8,1.3,2,1.3,3.2c0,1.2-0.5,2.4-1.4,3.3
		l1.4,1.4c0.9-0.9,2-1.4,3.2-1.4c1.2,0,2.3,0.5,3.2,1.3l3.2,3.2C26.3,17.7,26.7,18.8,26.8,20z"/>
</symbol>
<symbol id="icon-hamburger" viewBox="0 0 28 28">
	<title>hamburger</title>
	<path class="path1" d="M26,21v2c0,0.5-0.5,1-1,1H3c-0.5,0-1-0.5-1-1v-2c0-0.5,0.5-1,1-1h22C25.5,20,26,20.5,26,21z M26,13v2
		c0,0.5-0.5,1-1,1H3c-0.5,0-1-0.5-1-1v-2c0-0.5,0.5-1,1-1h22C25.5,12,26,12.5,26,13z M26,5v2c0,0.5-0.5,1-1,1H3C2.5,8,2,7.5,2,7V5
		c0-0.5,0.5-1,1-1h22C25.5,4,26,4.5,26,5z"/>
</symbol>
<symbol id="icon-address" viewBox="0 0 28 28">
	<title>address</title>
	<path class="path1" d="M18,10c0-2.2-1.8-4-4-4s-4,1.8-4,4s1.8,4,4,4S18,12.2,18,10z M22,10c0,1-0.1,1.9-0.5,2.8l-5.7,12.1
		c-0.3,0.7-1,1.1-1.8,1.1s-1.5-0.4-1.8-1.1L6.5,12.8C6.1,11.9,6,11,6,10c0-4.4,3.6-8,8-8S22,5.6,22,10L22,10z"/>
</symbol>
<symbol id="icon-plus" viewBox="0 0 28 28">
	<title>plus</title>
	<path class="path1" d="M25,12.5v3c0,0.8-0.7,1.5-1.5,1.5H17v6.5c0,0.8-0.7,1.5-1.5,1.5h-3c-0.8,0-1.5-0.7-1.5-1.5V17H4.5
		C3.7,17,3,16.3,3,15.5v-3C3,11.7,3.7,11,4.5,11H11V4.5C11,3.7,11.7,3,12.5,3h3C16.3,3,17,3.7,17,4.5V11h6.5
		C24.3,11,25,11.7,25,12.5z"/>
</symbol>
<symbol id="icon-search" viewBox="0 0 28 28">
	<title>search</title>
	<path class="path1" d="M19,12c0-3.9-3.1-7-7-7s-7,3.1-7,7s3.1,7,7,7S19,15.9,19,12z M27,25c0,1.1-0.9,2-2,2c-0.5,0-1-0.2-1.4-0.6
		l-5.4-5.3c-1.8,1.3-4,1.9-6.2,1.9C5.9,23,1,18.1,1,12S5.9,1,12,1s11,4.9,11,11c0,2.2-0.7,4.4-1.9,6.2l5.4,5.4
		C26.8,24,27,24.5,27,25L27,25z"/>
</symbol>
<symbol id="icon-share" viewBox="0 0 28 28">
	<title>share</title>
	<path class="path1" d="M21,16c2.8,0,5,2.2,5,5s-2.2,5-5,5s-5-2.2-5-5c0-0.2,0-0.4,0-0.5l-5.6-2.8
		C9.5,18.5,8.3,19,7,19c-2.8,0-5-2.2-5-5s2.2-5,5-5c1.3,0,2.5,0.5,3.4,1.3L16,7.5c0-0.2,0-0.4,0-0.5c0-2.8,2.2-5,5-5s5,2.2,5,5
		s-2.2,5-5,5c-1.3,0-2.5-0.5-3.4-1.3L12,13.5c0,0.2,0,0.4,0,0.5s0,0.4,0,0.5l5.6,2.8C18.5,16.5,19.7,16,21,16z"/>
</symbol>
<symbol id="icon-caret" viewBox="0 0 28 28">
	<title>caret</title>
	<path class="path1" d="M22,14c0,0.3-0.1,0.5-0.3,0.7l-7,7C14.5,21.9,14.3,22,14,22s-0.5-0.1-0.7-0.3l-7-7
		C6.1,14.5,6,14.3,6,14c0-0.5,0.5-1,1-1h14C21.5,13,22,13.5,22,14z"/>
</symbol>
<symbol id="icon-facebook" viewBox="0 0 28 28">
	<title>facebook</title>
	<path class="path1" d="M20,1.2v4.1h-2.5c-1.9,0-2.3,0.9-2.3,2.2v3h4.6l-0.6,4.6h-4V27h-4.8V15.1h-4v-4.6h4V7.1c0-4,2.4-6.1,6-6.1
		C18.1,1,19.6,1.1,20,1.2L20,1.2z"/>
</symbol>
<symbol id="icon-instagram" viewBox="0 0 28 28">
	<title>instagram</title>
	<path class="path1" d="M18,14c0-2.2-1.8-4-4-4s-4,1.8-4,4s1.8,4,4,4S18,16.2,18,14z M20.2,14c0,3.4-2.8,6.2-6.2,6.2S7.8,17.4,7.8,14
		s2.7-6.2,6.2-6.2S20.2,10.6,20.2,14z M21.8,7.6c0,0.8-0.6,1.4-1.4,1.4S19,8.4,19,7.6s0.6-1.4,1.4-1.4S21.8,6.8,21.8,7.6z M14,4.2
		c-1.8,0-5.5-0.1-7.1,0.5C6.4,4.9,6,5.1,5.5,5.5S4.9,6.4,4.6,6.9C4,8.5,4.2,12.2,4.2,14S4,19.5,4.6,21.1c0.2,0.5,0.5,1,0.9,1.4
		c0.4,0.4,0.8,0.7,1.4,0.9c1.6,0.6,5.3,0.5,7.1,0.5s5.5,0.1,7.1-0.5c0.5-0.2,1-0.5,1.4-0.9s0.7-0.8,0.9-1.4c0.6-1.6,0.5-5.3,0.5-7.1
		s0.1-5.5-0.5-7.1c-0.2-0.5-0.5-1-0.9-1.4s-0.8-0.7-1.4-0.9C19.5,4,15.7,4.2,14,4.2z M26,14c0,1.7,0,3.3-0.1,5
		c-0.1,1.9-0.5,3.6-1.9,5s-3.1,1.8-5,1.9C17.3,26,15.7,26,14,26s-3.3,0-5-0.1c-1.9-0.1-3.6-0.5-5-1.9s-1.8-3.1-1.9-5
		C2,17.3,2,15.7,2,14s0-3.3,0.1-5C2.2,7.1,2.6,5.4,4,4s3.1-1.8,5-1.9C10.7,2,12.3,2,14,2s3.3,0,5,0.1c1.9,0.1,3.6,0.5,5,1.9
		s1.8,3.1,1.9,5C26,10.7,26,12.3,26,14z"/>
</symbol>
<symbol id="icon-twitter" viewBox="0 0 28 28">
	<title>twitter</title>
	<path class="path1" d="M26.3,6.4c-0.7,1-1.5,1.9-2.5,2.6c0,0.2,0,0.4,0,0.7c0,6.7-5.1,14.4-14.4,14.4c-2.9,0-5.5-0.8-7.8-2.3
		c0.4,0,0.8,0.1,1.2,0.1c2.4,0,4.5-0.8,6.3-2.2c-2.2,0-4.1-1.5-4.7-3.5c0.3,0,0.6,0.1,1,0.1c0.5,0,0.9-0.1,1.3-0.2
		c-2.3-0.5-4-2.5-4-5V11c0.7,0.4,1.5,0.6,2.3,0.6c-1.4-0.9-2.3-2.5-2.3-4.2c0-0.9,0.2-1.8,0.7-2.5C5.9,8,9.6,10,13.8,10.2
		c-0.1-0.4-0.1-0.8-0.1-1.2c0-2.8,2.2-5,5-5c1.5,0,2.8,0.6,3.7,1.6c1.1-0.2,2.2-0.6,3.2-1.2c-0.4,1.2-1.2,2.2-2.2,2.8
		C24.4,7,25.4,6.8,26.3,6.4L26.3,6.4z"/>
</symbol>
<symbol id="icon-youtube" viewBox="0 0 28 28">
	<title>youtube</title>
	<path class="path1" d="M11.1,17.6l7.6-3.9l-7.6-4C11.1,9.8,11.1,17.6,11.1,17.6z M14,4.2c5.9,0,9.8,0.3,9.8,0.3
		c0.5,0.1,1.8,0.1,2.8,1.2c0,0,0.9,0.8,1.1,2.8c0.3,2.3,0.3,4.5,0.3,4.5v2.1c0,0,0,2.3-0.3,4.5c-0.2,1.9-1.1,2.8-1.1,2.8
		c-1.1,1.1-2.3,1.1-2.8,1.2c0,0-3.9,0.3-9.8,0.3l0,0c-7.3-0.1-9.5-0.3-9.5-0.3c-0.6-0.1-2-0.1-3.1-1.2c0,0-0.9-0.9-1.1-2.8
		C0,17.3,0,15.1,0,15.1v-2.1c0,0,0-2.3,0.3-4.5c0.3-1.9,1.1-2.8,1.1-2.8c1.1-1.1,2.3-1.1,2.8-1.2C4.2,4.4,8.1,4.2,14,4.2L14,4.2
		L14,4.2z"/>
</symbol>
<symbol id="icon-chevron-circle-left" viewBox="0 0 28 28">
	<title>chevron-circle-left</title>
	<path class="path1" d="M16.2,21.8l1.6-1.6c0.4-0.4,0.4-1,0-1.4L13,14l4.8-4.8c0.4-0.4,0.4-1,0-1.4l-1.6-1.6c-0.4-0.4-1-0.4-1.4,0
		l-7.1,7.1c-0.4,0.4-0.4,1,0,1.4l7.1,7.1C15.2,22.2,15.8,22.2,16.2,21.8z M26,14c0,6.6-5.4,12-12,12S2,20.6,2,14S7.4,2,14,2
		S26,7.4,26,14z"/>
</symbol>
<symbol id="icon-chevron-circle-right" viewBox="0 0 28 28">
	<title>chevron-circle-right</title>
	<path class="path1" d="M13.2,21.8l7.1-7.1c0.4-0.4,0.4-1,0-1.4l-7.1-7.1c-0.4-0.4-1-0.4-1.4,0l-1.6,1.6c-0.4,0.4-0.4,1,0,1.4L15,14
		l-4.8,4.8c-0.4,0.4-0.4,1,0,1.4l1.6,1.6C12.2,22.2,12.8,22.2,13.2,21.8z M26,14c0,6.6-5.4,12-12,12S2,20.6,2,14S7.4,2,14,2
		S26,7.4,26,14z"/>
</symbol>
<symbol id="icon-angle-double-right" viewBox="0 0 28 28">
	<title>angle-double-right</title>
	<path class="path1" d="M16.5,14c0,0.2-0.1,0.4-0.3,0.6L4.5,26.3c-0.2,0.2-0.4,0.3-0.6,0.3s-0.4-0.1-0.6-0.3l-1.3-1.3
		c-0.2-0.2-0.3-0.4-0.3-0.6s0.1-0.4,0.3-0.6L12,14L2.1,4.1C1.9,3.9,1.8,3.7,1.8,3.5s0.1-0.4,0.3-0.6l1.3-1.3
		c0.2-0.2,0.4-0.3,0.6-0.3c0.2,0,0.4,0.1,0.6,0.3l11.7,11.7C16.4,13.6,16.5,13.8,16.5,14z M26.2,14c0,0.2-0.1,0.4-0.3,0.6L14.2,26.3
		c-0.2,0.2-0.4,0.3-0.6,0.3s-0.4-0.1-0.6-0.3l-1.3-1.3c-0.2-0.2-0.3-0.4-0.3-0.6s0.1-0.4,0.3-0.6l9.9-9.9l-9.9-9.9
		c-0.2-0.2-0.3-0.4-0.3-0.6s0.1-0.4,0.3-0.6L13,1.7c0.2-0.2,0.4-0.3,0.6-0.3s0.4,0.1,0.6,0.3l11.7,11.7C26.1,13.6,26.2,13.8,26.2,14
		z"/>
</symbol>
<symbol id="icon-angle-double-left" viewBox="0 0 28 28">
	<title>angle-double-left</title>
	<path class="path1" d="M16.5,24.5c0,0.2-0.1,0.4-0.3,0.6L15,26.3c-0.2,0.2-0.4,0.3-0.6,0.3c-0.2,0-0.4-0.1-0.6-0.3
		L2.1,14.6c-0.2-0.2-0.3-0.4-0.3-0.6s0.1-0.4,0.3-0.6L13.8,1.7c0.2-0.2,0.4-0.3,0.6-0.3c0.2,0,0.4,0.1,0.6,0.3l1.3,1.3
		c0.2,0.2,0.3,0.4,0.3,0.6c0,0.2-0.1,0.4-0.3,0.6L6.3,14l9.9,9.9C16.4,24.1,16.5,24.3,16.5,24.5z M26.2,24.5c0,0.2-0.1,0.4-0.3,0.6
		l-1.3,1.3c-0.2,0.2-0.4,0.3-0.6,0.3c-0.2,0-0.4-0.1-0.6-0.3L11.8,14.6c-0.2-0.2-0.3-0.4-0.3-0.6s0.1-0.4,0.3-0.6L23.5,1.7
		c0.2-0.2,0.4-0.3,0.6-0.3c0.2,0,0.4,0.1,0.6,0.3l1.3,1.3c0.2,0.2,0.3,0.4,0.3,0.6c0,0.2-0.1,0.4-0.3,0.6L16,14l9.9,9.9
		C26.1,24.1,26.2,24.3,26.2,24.5z"/>
</symbol>
</defs>
</svg>
